<svg id="drawing" xmlns="http://www.w3.org/2000/svg" version="1.1" xmlns:xlink="http://www.w3.org/1999/xlink" xmlns:svgjs="http://svgjs.com/svgjs" width="885" height="1021.5" viewBox="110 72.5 885 1021.5"><defs id="SvgjsDefs1229"><marker id="SvgjsMarker1244" markerWidth="16.23606797749979" markerHeight="10.550836550532098" refX="-1" refY="3.8990363547948754" viewBox="-1 -1.3763819204711738 16.23606797749979 10.550836550532098" orient="auto" markerUnits="userSpaceOnUse"><path id="SvgjsPath1245" d="M12 3.8990363547948754L0 7.798072709589751V0Z " stroke="#323232" stroke-width="2" fill="#323232" transform="matrix(1,0,0,1,0,0)"></path></marker><marker id="SvgjsMarker1265" markerWidth="16.23606797749979" markerHeight="10.550836550532098" refX="-1" refY="3.8990363547948754" viewBox="-1 -1.3763819204711738 16.23606797749979 10.550836550532098" orient="auto" markerUnits="userSpaceOnUse"><path id="SvgjsPath1266" d="M12 3.8990363547948754L0 7.798072709589751V0Z " stroke="#323232" stroke-width="2" fill="#323232" transform="matrix(1,0,0,1,0,0)"></path></marker><marker id="SvgjsMarker1281" markerWidth="16.23606797749979" markerHeight="10.550836550532098" refX="-1" refY="3.8990363547948754" viewBox="-1 -1.3763819204711738 16.23606797749979 10.550836550532098" orient="auto" markerUnits="userSpaceOnUse"><path id="SvgjsPath1282" d="M12 3.8990363547948754L0 7.798072709589751V0Z " stroke="#323232" stroke-width="2" fill="#323232" transform="matrix(1,0,0,1,0,0)"></path></marker><marker id="SvgjsMarker1300" markerWidth="16.23606797749979" markerHeight="10.550836550532098" refX="-1" refY="3.8990363547948754" viewBox="-1 -1.3763819204711738 16.23606797749979 10.550836550532098" orient="auto" markerUnits="userSpaceOnUse"><path id="SvgjsPath1301" d="M12 3.8990363547948754L0 7.798072709589751V0Z " stroke="#323232" stroke-width="2" fill="#323232" transform="matrix(1,0,0,1,0,0)"></path></marker><marker id="SvgjsMarker1307" markerWidth="16.23606797749979" markerHeight="10.550836550532098" refX="-1" refY="3.8990363547948754" viewBox="-1 -1.3763819204711738 16.23606797749979 10.550836550532098" orient="auto" markerUnits="userSpaceOnUse"><path id="SvgjsPath1308" d="M12 3.8990363547948754L0 7.798072709589751V0Z " stroke="#323232" stroke-width="2" fill="#323232" transform="matrix(1,0,0,1,0,0)"></path></marker><marker id="SvgjsMarker1314" markerWidth="16.23606797749979" markerHeight="10.550836550532098" refX="-1" refY="3.8990363547948754" viewBox="-1 -1.3763819204711738 16.23606797749979 10.550836550532098" orient="auto" markerUnits="userSpaceOnUse"><path id="SvgjsPath1315" d="M12 3.8990363547948754L0 7.798072709589751V0Z " stroke="#323232" stroke-width="2" fill="#323232" transform="matrix(1,0,0,1,0,0)"></path></marker><marker id="SvgjsMarker1334" markerWidth="16.23606797749979" markerHeight="10.550836550532098" refX="-1" refY="3.8990363547948754" viewBox="-1 -1.3763819204711738 16.23606797749979 10.550836550532098" orient="auto" markerUnits="userSpaceOnUse"><path id="SvgjsPath1335" d="M12 3.8990363547948754L0 7.798072709589751V0Z " stroke="#323232" stroke-width="2" fill="#323232" transform="matrix(1,0,0,1,0,0)"></path></marker><marker id="SvgjsMarker1341" markerWidth="16.23606797749979" markerHeight="10.550836550532098" refX="-1" refY="3.8990363547948754" viewBox="-1 -1.3763819204711738 16.23606797749979 10.550836550532098" orient="auto" markerUnits="userSpaceOnUse"><path id="SvgjsPath1342" d="M12 3.8990363547948754L0 7.798072709589751V0Z " stroke="#323232" stroke-width="2" fill="#323232" transform="matrix(1,0,0,1,0,0)"></path></marker><marker id="SvgjsMarker1348" markerWidth="16.23606797749979" markerHeight="10.550836550532098" refX="-1" refY="3.8990363547948754" viewBox="-1 -1.3763819204711738 16.23606797749979 10.550836550532098" orient="auto" markerUnits="userSpaceOnUse"><path id="SvgjsPath1349" d="M12 3.8990363547948754L0 7.798072709589751V0Z " stroke="#323232" stroke-width="2" fill="#323232" transform="matrix(1,0,0,1,0,0)"></path></marker><marker id="SvgjsMarker1355" markerWidth="16.23606797749979" markerHeight="10.550836550532098" refX="-1" refY="3.8990363547948754" viewBox="-1 -1.3763819204711738 16.23606797749979 10.550836550532098" orient="auto" markerUnits="userSpaceOnUse"><path id="SvgjsPath1356" d="M12 3.8990363547948754L0 7.798072709589751V0Z " stroke="#323232" stroke-width="2" fill="#323232" transform="matrix(1,0,0,1,0,0)"></path></marker><marker id="SvgjsMarker1374" markerWidth="16.23606797749979" markerHeight="10.550836550532098" refX="-1" refY="3.8990363547948754" viewBox="-1 -1.3763819204711738 16.23606797749979 10.550836550532098" orient="auto" markerUnits="userSpaceOnUse"><path id="SvgjsPath1375" d="M12 3.8990363547948754L0 7.798072709589751V0Z " stroke="#323232" stroke-width="2" fill="#323232" transform="matrix(1,0,0,1,0,0)"></path></marker><marker id="SvgjsMarker1381" markerWidth="16.23606797749979" markerHeight="10.550836550532098" refX="-1" refY="3.8990363547948754" viewBox="-1 -1.3763819204711738 16.23606797749979 10.550836550532098" orient="auto" markerUnits="userSpaceOnUse"><path id="SvgjsPath1382" d="M12 3.8990363547948754L0 7.798072709589751V0Z " stroke="#323232" stroke-width="2" fill="#323232" transform="matrix(1,0,0,1,0,0)"></path></marker><marker id="SvgjsMarker1388" markerWidth="16.23606797749979" markerHeight="10.550836550532098" refX="-1" refY="3.8990363547948754" viewBox="-1 -1.3763819204711738 16.23606797749979 10.550836550532098" orient="auto" markerUnits="userSpaceOnUse"><path id="SvgjsPath1389" d="M12 3.8990363547948754L0 7.798072709589751V0Z " stroke="#323232" stroke-width="2" fill="#323232" transform="matrix(1,0,0,1,0,0)"></path></marker><marker id="SvgjsMarker1399" markerWidth="16.23606797749979" markerHeight="10.550836550532098" refX="-1" refY="3.8990363547948754" viewBox="-1 -1.3763819204711738 16.23606797749979 10.550836550532098" orient="auto" markerUnits="userSpaceOnUse"><path id="SvgjsPath1400" d="M12 3.8990363547948754L0 7.798072709589751V0Z " stroke="#323232" stroke-width="2" fill="#323232" transform="matrix(1,0,0,1,0,0)"></path></marker><marker id="SvgjsMarker1406" markerWidth="16.23606797749979" markerHeight="10.550836550532098" refX="-1" refY="3.8990363547948754" viewBox="-1 -1.3763819204711738 16.23606797749979 10.550836550532098" orient="auto" markerUnits="userSpaceOnUse"><path id="SvgjsPath1407" d="M12 3.8990363547948754L0 7.798072709589751V0Z " stroke="#323232" stroke-width="2" fill="#323232" transform="matrix(1,0,0,1,0,0)"></path></marker><marker id="SvgjsMarker1417" markerWidth="16.23606797749979" markerHeight="10.550836550532098" refX="-1" refY="3.8990363547948754" viewBox="-1 -1.3763819204711738 16.23606797749979 10.550836550532098" orient="auto" markerUnits="userSpaceOnUse"><path id="SvgjsPath1418" d="M12 3.8990363547948754L0 7.798072709589751V0Z " stroke="#323232" stroke-width="2" fill="#323232" transform="matrix(1,0,0,1,0,0)"></path></marker><marker id="SvgjsMarker1432" markerWidth="16.23606797749979" markerHeight="10.550836550532098" refX="-1" refY="3.8990363547948754" viewBox="-1 -1.3763819204711738 16.23606797749979 10.550836550532098" orient="auto" markerUnits="userSpaceOnUse"><path id="SvgjsPath1433" d="M12 3.8990363547948754L0 7.798072709589751V0Z " stroke="#323232" stroke-width="2" fill="#323232" transform="matrix(1,0,0,1,0,0)"></path></marker><marker id="SvgjsMarker1439" markerWidth="16.23606797749979" markerHeight="10.550836550532098" refX="-1" refY="3.8990363547948754" viewBox="-1 -1.3763819204711738 16.23606797749979 10.550836550532098" orient="auto" markerUnits="userSpaceOnUse"><path id="SvgjsPath1440" d="M12 3.8990363547948754L0 7.798072709589751V0Z " stroke="#323232" stroke-width="2" fill="#323232" transform="matrix(1,0,0,1,0,0)"></path></marker><marker id="SvgjsMarker1446" markerWidth="16.23606797749979" markerHeight="10.550836550532098" refX="-1" refY="3.8990363547948754" viewBox="-1 -1.3763819204711738 16.23606797749979 10.550836550532098" orient="auto" markerUnits="userSpaceOnUse"><path id="SvgjsPath1447" d="M12 3.8990363547948754L0 7.798072709589751V0Z " stroke="#323232" stroke-width="2" fill="#323232" transform="matrix(1,0,0,1,0,0)"></path></marker></defs><g id="SvgjsG1230"><path id="SvgjsPath1231" d="M110 72.5H995V1094H110V72.5Z " fill-opacity="1" fill="#ffffff"></path><g id="SvgjsG1232"><g id="SvgjsG1233" transform="translate(130 92.5)" opacity="1"><path id="SvgjsPath1234" d="M0 0L845 0L845 981.5L0 981.5Z " stroke-dasharray="none" stroke="#323232" stroke-width="2" fill="none" opacity="1"></path><path id="SvgjsPath1235" d="M0 0L40 0L40 981.5L0 981.5Z " stroke-dasharray="none" stroke="#323232" stroke-width="2" fill="#e5ccff" opacity="1"></path><g id="SvgjsG1236" transform="matrix(0 -1 1 0 10 971.5)" fill="#ffffff"><text id="SvgjsText1237" font-family="Arial,SimSun" fill="#323232" font-size="16" font-weight="bold" font-style="italic" text-anchor="start" text-decoration="blink" x="0" y="14">Laravel启动流程</text></g></g><g id="SvgjsG1238" transform="translate(264 127)" opacity="1"><path id="SvgjsPath1239" d="M16.666666666666668 0L121.33333333333333 0C143.55555555555554 0 143.55555555555554 50 121.33333333333333 50L16.666666666666668 50C-5.555555555555556 50 -5.555555555555556 0 16.666666666666668 0Z " stroke-dasharray="none" stroke="#323232" stroke-width="2" fill="#b3ff66" opacity="1"></path><g id="SvgjsG1240" transform="matrix(1 0 0 1 10 16.875)" fill="#ffffff"><text id="SvgjsText1241" font-family="Arial,SimSun" fill="#323232" font-size="13" font-weight="normal" font-style="normal" text-anchor="middle" text-decoration="blink" x="59" y="12">浏览器加载请求</text></g></g><g id="SvgjsG1242"><path id="SvgjsPath1243" d="M333 177L333 232L401.2639320225002 232 " stroke-dasharray="none" stroke="#323232" stroke-width="2" fill="none" marker-end="url(#SvgjsMarker1244)"></path><g id="SvgjsG1246" transform="matrix(1 0 0 1 339.63196601125014 223.875)"><path id="SvgjsPath1247" d="M0 0H0V0H0V0Z " fill="#ffffff" transform="translate(0 0)"></path><text id="SvgjsText1248" font-family="Microsoft Yahei,SimSun" fill="#323232" font-size="13" font-weight="normal" font-style="normal" text-anchor="middle" text-decoration="blink" x="0" y="0"></text></g></g><g id="SvgjsG1249" transform="translate(416.5 209)" opacity="1"><path id="SvgjsPath1250" d="M0 0L139 0L139 46L0 46Z " stroke-dasharray="none" stroke="#323232" stroke-width="2" fill="#66ffff" opacity="1"></path><g id="SvgjsG1251" transform="matrix(1 0 0 1 10 14.875)" fill="#ffffff"><text id="SvgjsText1252" font-family="Arial,SimSun" fill="#323232" font-size="13" font-weight="bold" font-style="normal" text-anchor="middle" text-decoration="blink" x="59.5" y="12">自动加载组件</text></g></g><g id="SvgjsG1253" transform="translate(170 92.5)" opacity="1"><path id="SvgjsPath1254" d="M0 0L805 0L805 324.5L0 324.5Z " stroke-dasharray="none" stroke="#323232" stroke-width="2" fill="none" opacity="1"></path><path id="SvgjsPath1255" d="M0 0L30 0L30 324.5L0 324.5Z " stroke-dasharray="none" stroke="#323232" stroke-width="2" fill="#ffff66" opacity="1"></path><g id="SvgjsG1256" transform="matrix(0 -1 1 0 6.875 314.5)" fill="#ffffff"><text id="SvgjsText1257" font-family="微软雅黑,黑体,Arial,SimSun" fill="#000000" font-size="13" font-weight="normal" font-style="normal" text-anchor="middle" text-decoration="blink" x="152.25" y="14">public/index.php</text></g></g><g id="SvgjsG1258" transform="translate(236.5 294)" opacity="1"><path id="SvgjsPath1259" d="M0 0L193 0L193 51L0 51Z " stroke-dasharray="none" stroke="#323232" stroke-width="2" fill="#66ffff" opacity="1"></path><g id="SvgjsG1260" transform="matrix(1 0 0 1 10 9.25)" fill="#ffffff"><text id="SvgjsText1261" font-family="Arial,SimSun" fill="#323232" font-size="13" font-weight="bold" font-style="normal" text-anchor="middle" text-decoration="blink" x="86.5" y="12">引入Laravel 应用程序实例Ap</text><text id="SvgjsText1262" font-family="Arial,SimSun" fill="#323232" font-size="13" font-weight="bold" font-style="normal" text-anchor="middle" text-decoration="blink" x="86.5" y="28.25">p</text></g></g><g id="SvgjsG1263"><path id="SvgjsPath1264" d="M333 177L333 235.5L333 235.5L333 278.7639320225002 " stroke-dasharray="none" stroke="#323232" stroke-width="2" fill="none" marker-end="url(#SvgjsMarker1265)"></path><g id="SvgjsG1267" transform="matrix(1 0 0 1 333 219.7569660112501)"><path id="SvgjsPath1268" d="M0 0H0V0H0V0Z " fill="#ffffff" transform="translate(0 0)"></path><text id="SvgjsText1269" font-family="Microsoft Yahei,SimSun" fill="#000000" font-size="13" font-weight="normal" font-style="normal" text-anchor="middle" text-decoration="blink" x="0" y="0"></text></g></g><g id="SvgjsG1270" transform="translate(170 417)" opacity="1"><path id="SvgjsPath1271" d="M0 0L805 0L805 330L0 330Z " stroke-dasharray="none" stroke="#323232" stroke-width="2" fill="none" opacity="1"></path><path id="SvgjsPath1272" d="M0 0L30 0L30 330L0 330Z " stroke-dasharray="none" stroke="#323232" stroke-width="2" fill="#80ff00" opacity="1"></path><g id="SvgjsG1273" transform="matrix(0 -1 1 0 6.875 320)" fill="#ffffff"><text id="SvgjsText1274" font-family="微软雅黑,黑体,Arial,SimSun" fill="#000000" font-size="13" font-weight="normal" font-style="normal" text-anchor="middle" text-decoration="blink" x="155" y="14">bootstrap/app.php</text></g></g><g id="SvgjsG1275" transform="translate(502.5 559)" opacity="1"><path id="SvgjsPath1276" d="M0 0L193 0L193 51L0 51Z " stroke-dasharray="none" stroke="#323232" stroke-width="2" fill="#66ffff" opacity="1"></path><g id="SvgjsG1277" transform="matrix(1 0 0 1 10 17.375)" fill="#ffffff"><text id="SvgjsText1278" font-family="Arial,SimSun" fill="#323232" font-size="13" font-weight="bold" font-style="normal" text-anchor="middle" text-decoration="blink" x="86.5" y="12">创建实例App</text></g></g><g id="SvgjsG1279"><path id="SvgjsPath1280" d="M333 345L333 452L599 452L599 543.7639320225002 " stroke-dasharray="none" stroke="#323232" stroke-width="2" fill="none" marker-end="url(#SvgjsMarker1281)"></path><g id="SvgjsG1283" transform="matrix(1 0 0 1 458.3819660112501 443.875)"><path id="SvgjsPath1284" d="M0 0H0V0H0V0Z " fill="#ffffff" transform="translate(0 0)"></path><text id="SvgjsText1285" font-family="Microsoft Yahei,SimSun" fill="#000000" font-size="13" font-weight="normal" font-style="normal" text-anchor="middle" text-decoration="blink" x="0" y="0"></text></g></g><g id="SvgjsG1286" transform="translate(219.5 475)" opacity="1"><path id="SvgjsPath1287" d="M0 0L193 0L193 51L0 51Z " stroke-dasharray="none" stroke="#323232" stroke-width="2" fill="#66ffff" opacity="1"></path><g id="SvgjsG1288" transform="matrix(1 0 0 1 10 17.375)" fill="#ffffff"><text id="SvgjsText1289" font-family="Arial,SimSun" fill="#323232" font-size="13" font-weight="bold" font-style="normal" text-anchor="middle" text-decoration="blink" x="86.5" y="12">绑定Debug</text></g></g><g id="SvgjsG1290" transform="translate(219.5 559)" opacity="1"><path id="SvgjsPath1291" d="M0 0L193 0L193 51L0 51Z " stroke-dasharray="none" stroke="#323232" stroke-width="2" fill="#66ffff" opacity="1"></path><g id="SvgjsG1292" transform="matrix(1 0 0 1 10 17.375)" fill="#ffffff"><text id="SvgjsText1293" font-family="Arial,SimSun" fill="#323232" font-size="13" font-weight="bold" font-style="normal" text-anchor="middle" text-decoration="blink" x="86.5" y="12">绑定Console</text></g></g><g id="SvgjsG1294" transform="translate(219.5 643)" opacity="1"><path id="SvgjsPath1295" d="M0 0L193 0L193 51L0 51Z " stroke-dasharray="none" stroke="#323232" stroke-width="2" fill="#66ffff" opacity="1"></path><g id="SvgjsG1296" transform="matrix(1 0 0 1 10 17.375)" fill="#ffffff"><text id="SvgjsText1297" font-family="Arial,SimSun" fill="#323232" font-size="13" font-weight="bold" font-style="normal" text-anchor="middle" text-decoration="blink" x="86.5" y="12">绑定Http</text></g></g><g id="SvgjsG1298"><path id="SvgjsPath1299" d="M412.5 500.5L457.5 500.5L457.5 584.5L487.2639320225002 584.5 " stroke-dasharray="none" stroke="#323232" stroke-width="2" fill="none" marker-end="url(#SvgjsMarker1300)"></path><g id="SvgjsG1302" transform="matrix(1 0 0 1 457.5 526.7569660112501)"><path id="SvgjsPath1303" d="M0 0H0V0H0V0Z " fill="#ffffff" transform="translate(0 0)"></path><text id="SvgjsText1304" font-family="Microsoft Yahei,SimSun" fill="#000000" font-size="13" font-weight="normal" font-style="normal" text-anchor="middle" text-decoration="blink" x="0" y="0"></text></g></g><g id="SvgjsG1305"><path id="SvgjsPath1306" d="M412.5 584.5L457.5 584.5L457.5 584.5L487.2639320225002 584.5 " stroke-dasharray="none" stroke="#323232" stroke-width="2" fill="none" marker-end="url(#SvgjsMarker1307)"></path><g id="SvgjsG1309" transform="matrix(1 0 0 1 449.88196601125014 576.375)"><path id="SvgjsPath1310" d="M0 0H0V0H0V0Z " fill="#ffffff" transform="translate(0 0)"></path><text id="SvgjsText1311" font-family="Microsoft Yahei,SimSun" fill="#000000" font-size="13" font-weight="normal" font-style="normal" text-anchor="middle" text-decoration="blink" x="0" y="0"></text></g></g><g id="SvgjsG1312"><path id="SvgjsPath1313" d="M412.5 668.5L457.5 668.5L457.5 584.5L487.2639320225002 584.5 " stroke-dasharray="none" stroke="#323232" stroke-width="2" fill="none" marker-end="url(#SvgjsMarker1314)"></path><g id="SvgjsG1316" transform="matrix(1 0 0 1 457.5 625.9930339887499)"><path id="SvgjsPath1317" d="M0 0H0V0H0V0Z " fill="#ffffff" transform="translate(0 0)"></path><text id="SvgjsText1318" font-family="Microsoft Yahei,SimSun" fill="#000000" font-size="13" font-weight="normal" font-style="normal" text-anchor="middle" text-decoration="blink" x="0" y="0"></text></g></g><g id="SvgjsG1319" transform="translate(170 747)" opacity="1"><path id="SvgjsPath1320" d="M0 0L805 0L805 327L0 327Z " stroke-dasharray="none" stroke="#323232" stroke-width="2" fill="none" opacity="1"></path><path id="SvgjsPath1321" d="M0 0L30 0L30 327L0 327Z " stroke-dasharray="none" stroke="#323232" stroke-width="2" fill="#00ffff" opacity="1"></path><g id="SvgjsG1322" transform="matrix(0 -1 1 0 6.875 317)" fill="#ffffff"><text id="SvgjsText1323" font-family="微软雅黑,黑体,Arial,SimSun" fill="#000000" font-size="13" font-weight="normal" font-style="normal" text-anchor="middle" text-decoration="blink" x="153.5" y="14">App\Http\Kernel.php</text></g></g><g id="SvgjsG1324" transform="translate(219.5 811)" opacity="1"><path id="SvgjsPath1325" d="M0 0L193 0L193 51L0 51Z " stroke-dasharray="none" stroke="#323232" stroke-width="2" fill="#66ffff" opacity="1"></path><g id="SvgjsG1326" transform="matrix(1 0 0 1 10 17.375)" fill="#ffffff"><text id="SvgjsText1327" font-family="Arial,SimSun" fill="#323232" font-size="13" font-weight="bold" font-style="normal" text-anchor="middle" text-decoration="blink" x="86.5" y="12">中间件</text></g></g><g id="SvgjsG1328" transform="translate(219.5 956)" opacity="1"><path id="SvgjsPath1329" d="M0 0L193 0L193 51L0 51Z " stroke-dasharray="none" stroke="#323232" stroke-width="2" fill="#66ffff" opacity="1"></path><g id="SvgjsG1330" transform="matrix(1 0 0 1 10 17.375)" fill="#ffffff"><text id="SvgjsText1331" font-family="Arial,SimSun" fill="#323232" font-size="13" font-weight="bold" font-style="normal" text-anchor="middle" text-decoration="blink" x="86.5" y="12">服务提供者</text></g></g><g id="SvgjsG1332"><path id="SvgjsPath1333" d="M316 694L316 752.5L316 752.5L316 795.7639320225002 " stroke-dasharray="none" stroke="#323232" stroke-width="2" fill="none" marker-end="url(#SvgjsMarker1334)"></path><g id="SvgjsG1336" transform="matrix(1 0 0 1 316 736.7569660112501)"><path id="SvgjsPath1337" d="M0 0H0V0H0V0Z " fill="#ffffff" transform="translate(0 0)"></path><text id="SvgjsText1338" font-family="Microsoft Yahei,SimSun" fill="#000000" font-size="13" font-weight="normal" font-style="normal" text-anchor="middle" text-decoration="blink" x="0" y="0"></text></g></g><g id="SvgjsG1339"><path id="SvgjsPath1340" d="M316 862L316 909L316 909L316 940.7639320225002 " stroke-dasharray="none" stroke="#323232" stroke-width="2" fill="none" marker-end="url(#SvgjsMarker1341)"></path><g id="SvgjsG1343" transform="matrix(1 0 0 1 316 893.2569660112501)"><path id="SvgjsPath1344" d="M0 0H0V0H0V0Z " fill="#ffffff" transform="translate(0 0)"></path><text id="SvgjsText1345" font-family="Microsoft Yahei,SimSun" fill="#000000" font-size="13" font-weight="normal" font-style="normal" text-anchor="middle" text-decoration="blink" x="0" y="0"></text></g></g><g id="SvgjsG1346"><path id="SvgjsPath1347" d="M316 956L316 909L316 909L316 877.2360679774998 " stroke-dasharray="none" stroke="#323232" stroke-width="2" fill="none" marker-end="url(#SvgjsMarker1348)"></path><g id="SvgjsG1350" transform="matrix(1 0 0 1 316 908.4930339887499)"><path id="SvgjsPath1351" d="M0 0H0V0H0V0Z " fill="#ffffff" transform="translate(0 0)"></path><text id="SvgjsText1352" font-family="Microsoft Yahei,SimSun" fill="#000000" font-size="13" font-weight="normal" font-style="normal" text-anchor="middle" text-decoration="blink" x="0" y="0"></text></g></g><g id="SvgjsG1353"><path id="SvgjsPath1354" d="M316 811L316 752.5L316 752.5L316 709.2360679774998 " stroke-dasharray="none" stroke="#323232" stroke-width="2" fill="none" marker-end="url(#SvgjsMarker1355)"></path><g id="SvgjsG1357" transform="matrix(1 0 0 1 316 751.9930339887499)"><path id="SvgjsPath1358" d="M0 0H0V0H0V0Z " fill="#ffffff" transform="translate(0 0)"></path><text id="SvgjsText1359" font-family="Microsoft Yahei,SimSun" fill="#000000" font-size="13" font-weight="normal" font-style="normal" text-anchor="middle" text-decoration="blink" x="0" y="0"></text></g></g><g id="SvgjsG1360" transform="translate(502.5 766)" opacity="1"><path id="SvgjsPath1361" d="M0 0L193 0L193 51L0 51Z " stroke-dasharray="none" stroke="#323232" stroke-width="2" fill="#66ffff" opacity="1"></path><g id="SvgjsG1362" transform="matrix(1 0 0 1 10 17.375)" fill="#ffffff"><text id="SvgjsText1363" font-family="Arial,SimSun" fill="#323232" font-size="13" font-weight="bold" font-style="normal" text-anchor="middle" text-decoration="blink" x="86.5" y="12">日志记录</text></g></g><g id="SvgjsG1364" transform="translate(505 844)" opacity="1"><path id="SvgjsPath1365" d="M0 0L193 0L193 51L0 51Z " stroke-dasharray="none" stroke="#323232" stroke-width="2" fill="#66ffff" opacity="1"></path><g id="SvgjsG1366" transform="matrix(1 0 0 1 10 17.375)" fill="#ffffff"><text id="SvgjsText1367" font-family="Arial,SimSun" fill="#323232" font-size="13" font-weight="bold" font-style="normal" text-anchor="middle" text-decoration="blink" x="86.5" y="12">错误处理</text></g></g><g id="SvgjsG1368" transform="translate(505 920)" opacity="1"><path id="SvgjsPath1369" d="M0 0L193 0L193 51L0 51Z " stroke-dasharray="none" stroke="#323232" stroke-width="2" fill="#66ffff" opacity="1"></path><g id="SvgjsG1370" transform="matrix(1 0 0 1 10 17.375)" fill="#ffffff"><text id="SvgjsText1371" font-family="Arial,SimSun" fill="#323232" font-size="13" font-weight="bold" font-style="normal" text-anchor="middle" text-decoration="blink" x="86.5" y="12">.....</text></g></g><g id="SvgjsG1372"><path id="SvgjsPath1373" d="M412.5 981.5L457.5 981.5L457.5 791.5L487.2639320225002 791.5 " stroke-dasharray="none" stroke="#323232" stroke-width="2" fill="none" marker-end="url(#SvgjsMarker1374)"></path><g id="SvgjsG1376" transform="matrix(1 0 0 1 457.5 885.9930339887499)"><path id="SvgjsPath1377" d="M0 0H0V0H0V0Z " fill="#ffffff" transform="translate(0 0)"></path><text id="SvgjsText1378" font-family="Microsoft Yahei,SimSun" fill="#000000" font-size="13" font-weight="normal" font-style="normal" text-anchor="middle" text-decoration="blink" x="0" y="0"></text></g></g><g id="SvgjsG1379"><path id="SvgjsPath1380" d="M412.5 981.5L458.75 981.5L458.75 869.5L489.7639320225002 869.5 " stroke-dasharray="none" stroke="#323232" stroke-width="2" fill="none" marker-end="url(#SvgjsMarker1381)"></path><g id="SvgjsG1383" transform="matrix(1 0 0 1 458.75 924.9930339887499)"><path id="SvgjsPath1384" d="M0 0H0V0H0V0Z " fill="#ffffff" transform="translate(0 0)"></path><text id="SvgjsText1385" font-family="Microsoft Yahei,SimSun" fill="#000000" font-size="13" font-weight="normal" font-style="normal" text-anchor="middle" text-decoration="blink" x="0" y="0"></text></g></g><g id="SvgjsG1386"><path id="SvgjsPath1387" d="M412.5 981.5L458.75 981.5L458.75 945.5L489.7639320225002 945.5 " stroke-dasharray="none" stroke="#323232" stroke-width="2" fill="none" marker-end="url(#SvgjsMarker1388)"></path><g id="SvgjsG1390" transform="matrix(1 0 0 1 458.75 962.9930339887499)"><path id="SvgjsPath1391" d="M0 0H0V0H0V0Z " fill="#ffffff" transform="translate(0 0)"></path><text id="SvgjsText1392" font-family="Microsoft Yahei,SimSun" fill="#000000" font-size="13" font-weight="normal" font-style="normal" text-anchor="middle" text-decoration="blink" x="0" y="0"></text></g></g><g id="SvgjsG1393" transform="translate(508 294)" opacity="1"><path id="SvgjsPath1394" d="M0 0L142 0L142 51L0 51Z " stroke-dasharray="none" stroke="#323232" stroke-width="2" fill="#66ffff" opacity="1"></path><g id="SvgjsG1395" transform="matrix(1 0 0 1 10 17.375)" fill="#ffffff"><text id="SvgjsText1396" font-family="Arial,SimSun" fill="#323232" font-size="13" font-weight="bold" font-style="normal" text-anchor="middle" text-decoration="blink" x="61" y="12">创建HTTP内核</text></g></g><g id="SvgjsG1397"><path id="SvgjsPath1398" d="M599 559L599 452L333 452L333 360.2360679774998 " stroke-dasharray="none" stroke="#323232" stroke-width="2" fill="none" marker-end="url(#SvgjsMarker1399)"></path><g id="SvgjsG1401" transform="matrix(1 0 0 1 473.61803398874986 443.875)"><path id="SvgjsPath1402" d="M0 0H0V0H0V0Z " fill="#ffffff" transform="translate(0 0)"></path><text id="SvgjsText1403" font-family="Microsoft Yahei,SimSun" fill="#000000" font-size="13" font-weight="normal" font-style="normal" text-anchor="middle" text-decoration="blink" x="0" y="0"></text></g></g><g id="SvgjsG1404"><path id="SvgjsPath1405" d="M429.5 319.5L468.75 319.5L468.75 319.5L492.7639320225002 319.5 " stroke-dasharray="none" stroke="#323232" stroke-width="2" fill="none" marker-end="url(#SvgjsMarker1406)"></path><g id="SvgjsG1408" transform="matrix(1 0 0 1 461.13196601125014 311.375)"><path id="SvgjsPath1409" d="M0 0H0V0H0V0Z " fill="#ffffff" transform="translate(0 0)"></path><text id="SvgjsText1410" font-family="Microsoft Yahei,SimSun" fill="#000000" font-size="13" font-weight="normal" font-style="normal" text-anchor="middle" text-decoration="blink" x="0" y="0"></text></g></g><g id="SvgjsG1411" transform="translate(743 294)" opacity="1"><path id="SvgjsPath1412" d="M0 0L142 0L142 51L0 51Z " stroke-dasharray="none" stroke="#323232" stroke-width="2" fill="#66ffff" opacity="1"></path><g id="SvgjsG1413" transform="matrix(1 0 0 1 10 17.375)" fill="#ffffff"><text id="SvgjsText1414" font-family="Arial,SimSun" fill="#323232" font-size="13" font-weight="bold" font-style="normal" text-anchor="middle" text-decoration="blink" x="61" y="12">响应Request</text></g></g><g id="SvgjsG1415"><path id="SvgjsPath1416" d="M650 319.5L696.5 319.5L696.5 319.5L727.7639320225002 319.5 " stroke-dasharray="none" stroke="#323232" stroke-width="2" fill="none" marker-end="url(#SvgjsMarker1417)"></path><g id="SvgjsG1419" transform="matrix(1 0 0 1 688.8819660112501 311.375)"><path id="SvgjsPath1420" d="M0 0H0V0H0V0Z " fill="#ffffff" transform="translate(0 0)"></path><text id="SvgjsText1421" font-family="Microsoft Yahei,SimSun" fill="#000000" font-size="13" font-weight="normal" font-style="normal" text-anchor="middle" text-decoration="blink" x="0" y="0"></text></g></g><g id="SvgjsG1422" transform="translate(743 126.5)" opacity="1"><path id="SvgjsPath1423" d="M0 0L142 0L142 51L0 51Z " stroke-dasharray="none" stroke="#323232" stroke-width="2" fill="#66ffff" opacity="1"></path><g id="SvgjsG1424" transform="matrix(1 0 0 1 10 17.375)" fill="#ffffff"><text id="SvgjsText1425" font-family="Arial,SimSun" fill="#323232" font-size="13" font-weight="bold" font-style="normal" text-anchor="middle" text-decoration="blink" x="61" y="12">经过路由程序处理</text></g></g><g id="SvgjsG1426" transform="translate(546 126.5)" opacity="1"><path id="SvgjsPath1427" d="M0 0L142 0L142 51L0 51Z " stroke-dasharray="none" stroke="#323232" stroke-width="2" fill="#66ffff" opacity="1"></path><g id="SvgjsG1428" transform="matrix(1 0 0 1 10 17.375)" fill="#ffffff"><text id="SvgjsText1429" font-family="Arial,SimSun" fill="#323232" font-size="13" font-weight="bold" font-style="normal" text-anchor="middle" text-decoration="blink" x="61" y="12">返回Response</text></g></g><g id="SvgjsG1430"><path id="SvgjsPath1431" d="M814 294L814 235.75L814 235.75L814 192.7360679774998 " stroke-dasharray="none" stroke="#323232" stroke-width="2" fill="none" marker-end="url(#SvgjsMarker1432)"></path><g id="SvgjsG1434" transform="matrix(1 0 0 1 814 235.24303398874991)"><path id="SvgjsPath1435" d="M0 0H0V0H0V0Z " fill="#ffffff" transform="translate(0 0)"></path><text id="SvgjsText1436" font-family="Microsoft Yahei,SimSun" fill="#000000" font-size="13" font-weight="normal" font-style="normal" text-anchor="middle" text-decoration="blink" x="0" y="0"></text></g></g><g id="SvgjsG1437"><path id="SvgjsPath1438" d="M743 152L715.5 152L715.5 152L703.2360679774998 152 " stroke-dasharray="none" stroke="#323232" stroke-width="2" fill="none" marker-end="url(#SvgjsMarker1439)"></path><g id="SvgjsG1441" transform="matrix(1 0 0 1 723.1180339887499 143.875)"><path id="SvgjsPath1442" d="M0 0H0V0H0V0Z " fill="#ffffff" transform="translate(0 0)"></path><text id="SvgjsText1443" font-family="Microsoft Yahei,SimSun" fill="#000000" font-size="13" font-weight="normal" font-style="normal" text-anchor="middle" text-decoration="blink" x="0" y="0"></text></g></g><g id="SvgjsG1444"><path id="SvgjsPath1445" d="M546 152L474 152L474 152L417.2360679774998 152 " stroke-dasharray="none" stroke="#323232" stroke-width="2" fill="none" marker-end="url(#SvgjsMarker1446)"></path><g id="SvgjsG1448" transform="matrix(1 0 0 1 481.61803398874986 143.875)"><path id="SvgjsPath1449" d="M0 0H0V0H0V0Z " fill="#ffffff" transform="translate(0 0)"></path><text id="SvgjsText1450" font-family="Microsoft Yahei,SimSun" fill="#000000" font-size="13" font-weight="normal" font-style="normal" text-anchor="middle" text-decoration="blink" x="0" y="0"></text></g></g></g></g></svg>